<svg height="30" width="30" xmlns="http://www.w3.org/2000/svg" viewBox="0 0 361.742 361.742" xml:space="preserve"><path d="m282.179 155.987 75.852-99.244c4.161-5.444 4.878-12.604 1.871-18.688-3.023-6.117-9.298-10.069-15.985-10.069-2.668 0-5.281.601-7.767 1.786L223.278 83.6a1.549 1.549 0 0 1-.84-.43l-.437-.437-61.808-48.174c-4.851-3.834-10.638-5.861-16.737-5.861-13.822 0-25.425 10.336-26.991 24.044l-5.294 46.353-102.37 93.533-.219.207c-10.639 10.325-11.497 27.299-1.954 38.644l68.77 81.755a28.332 28.332 0 0 0 21.73 10.114 28.23 28.23 0 0 0 19.31-7.586l33.388-26.42.739-.646c1.924-1.855 4.886-2.39 7.344-1.303l98.754 43.659a31.327 31.327 0 0 0 12.742 2.704c3.228 0 6.41-.501 9.458-1.49 13.021-4.222 25.442-14.812 36.919-31.477 10.132-14.713 12.522-33.56 6.394-50.415l-.109-.301-40.478-92.428a1.533 1.533 0 0 1 .345-1.381l.245-.277zm21.302 101.504c3.794 10.717 2.244 22.64-4.171 31.955-8.797 12.774-18.001 21.002-26.617 23.796-2.515.814-5.411.638-7.943-.481l-98.754-43.659a26.512 26.512 0 0 0-10.786-2.279 26.556 26.556 0 0 0-18.136 7.107l-33.391 26.422-.739.646a8.336 8.336 0 0 1-5.816 2.352 8.375 8.375 0 0 1-6.425-2.988l-68.77-81.755c-2.793-3.321-2.57-8.274.49-11.333l102.436-93.592.219-.207a21.664 21.664 0 0 0 5.21-8.01l.415-1.127 5.634-49.326c.473-4.145 3.94-6.313 7.12-6.313 1.574 0 3.032.521 4.388 1.593l51.515 40.153 64.302 76.126 39.819 90.92zm-35.123-116.356-34.246-40.544 102.647-48.952-68.401 89.496z"/><circle cx="217.252" cy="180.434" r="20.57"/></svg>
